<?xml version="1.0" encoding="UTF-8" standalone="no"?>
<svg
   xmlns:dc="http://purl.org/dc/elements/1.1/"
   xmlns:cc="http://creativecommons.org/ns#"
   xmlns:rdf="http://www.w3.org/1999/02/22-rdf-syntax-ns#"
   xmlns:svg="http://www.w3.org/2000/svg"
   xmlns="http://www.w3.org/2000/svg"
   xmlns:sodipodi="http://sodipodi.sourceforge.net/DTD/sodipodi-0.dtd"
   xmlns:inkscape="http://www.inkscape.org/namespaces/inkscape"
   sodipodi:docname="buf_logo_footer.svg"
   inkscape:version="1.1-dev (1:0.92.0+devel+202003231341+310bff5)"
   id="svg1580"
   version="1.1"
   viewBox="0 0 148.57788 152.19972"
   height="152.19972mm"
   width="148.57788mm">
  <defs
     id="defs1574" />
  <sodipodi:namedview
     inkscape:window-maximized="1"
     inkscape:window-y="0"
     inkscape:window-x="2560"
     inkscape:window-height="1377"
     inkscape:window-width="2560"
     fit-margin-bottom="0"
     fit-margin-right="0"
     fit-margin-left="0"
     fit-margin-top="0"
     showgrid="false"
     inkscape:current-layer="layer1"
     inkscape:document-units="mm"
     inkscape:cy="372.04011"
     inkscape:cx="478.8236"
     inkscape:zoom="0.98892381"
     inkscape:pageshadow="2"
     inkscape:pageopacity="0.0"
     borderopacity="1.0"
     bordercolor="#666666"
     pagecolor="#ffffff"
     id="base" />
  <metadata
     id="metadata1577">
    <rdf:RDF>
      <cc:Work
         rdf:about="">
        <dc:format>image/svg+xml</dc:format>
        <dc:type
           rdf:resource="http://purl.org/dc/dcmitype/StillImage" />
        <dc:title></dc:title>
      </cc:Work>
    </rdf:RDF>
  </metadata>
  <g
     transform="translate(-7.5624736,-5.4885544)"
     id="layer1"
     inkscape:groupmode="layer"
     inkscape:label="Layer 1">
    <path
       inkscape:export-ydpi="17.095411"
       inkscape:export-xdpi="17.095411"
       style="font-style:normal;font-weight:normal;font-size:medium;line-height:1.25;font-family:sans-serif;letter-spacing:0px;word-spacing:0px;fill:#808080;fill-opacity:1;stroke:none;stroke-width:3.96129"
       d="m 44.780854,5.4890836 c -2.21832,0 -4.59507,0.052652 -7.13031,0.1584854 -2.53524,0.1055688 -5.12355,0.2640542 -7.76438,0.4754563 -2.53524,0.2114019 -5.07,0.4754559 -7.60521,0.7921629 -2.53524,0.31697 -12.6057904,0.73951 -14.7184804,1.267618 V 114.66226 c 2.11269,0.52811 12.1832404,0.95065 14.7184804,1.26762 0.67257,0.0841 1.34487,0.16404 2.01744,0.24077 V 56.947895 h 17.17207 v 60.368395 c 1.20849,0.0265 2.36466,0.0386 3.46853,0.0386 5.26635,0 10.10087,-0.2495 14.5097,-0.74506 V 82.042037 h 17.17209 v 30.576833 c 2.49859,-1.00727 4.72149,-2.17434 6.66366,-3.50308 8.13385,-5.59885 12.200814,-13.890888 12.200814,-24.876653 0,-7.499879 -1.901714,-13.309864 -5.704544,-17.429956 -3.80286,-4.119563 -8.92593,-7.129992 -15.36962,-9.031288 4.75355,-1.901295 8.55649,-4.753768 11.40862,-8.556625 2.85213,-3.908425 4.27828,-8.873331 4.27828,-14.894189 0,-5.387446 -1.16213,-9.930077 -3.48609,-13.6271 -2.32397,-3.697288 -5.54583,-6.655064 -9.66558,-8.873331 C 72.932224,9.5025482 68.125674,7.8655712 62.527064,6.9146582 57.034074,5.9642753 51.118924,5.4885544 44.780854,5.4885544 Z M 59.448694,116.61039 c 0.41817,-0.0471 0.83238,-0.0963 1.24282,-0.14764 -0.41036,0.0513 -0.82473,0.1008 -1.24282,0.14764 z m 17.16381,-3.98781 c -0.269,0.10847 -0.54205,0.21404 -0.81751,0.31882 0.27546,-0.10478 0.54851,-0.21035 0.81751,-0.31882 z m -0.92914,0.36168 c -0.25201,0.095 -0.50744,0.18812 -0.7648,0.28019 0.25746,-0.0921 0.51271,-0.1852 0.7648,-0.28019 z m -0.96634,0.3519 c -0.26162,0.0921 -0.52615,0.18229 -0.79324,0.27119 0.26704,-0.0889 0.53168,-0.17912 0.79324,-0.27119 z m -0.92966,0.3167 c -0.28252,0.0931 -0.56767,0.18442 -0.85627,0.27411 0.28845,-0.0897 0.57388,-0.18097 0.85627,-0.27411 z m -0.96687,0.30798 c -0.29885,0.0921 -0.60055,0.18256 -0.90588,0.27093 0.30541,-0.0884 0.60695,-0.17859 0.90588,-0.27093 z m -0.9674,0.28839 c -0.32043,0.0923 -0.64391,0.18311 -0.97149,0.27148 0.32766,-0.0884 0.65098,-0.17913 0.97149,-0.27148 z m -0.97149,0.27148 c -2.39538,0.64479 -4.98158,1.17977 -7.75819,1.60443 2.7764,-0.42466 5.36305,-0.95938 7.75819,-1.60443 z m -7.75819,1.60443 c -0.39378,0.0603 -0.79127,0.11827 -1.19269,0.1741 0.40132,-0.0558 0.79901,-0.11378 1.19269,-0.1741 z m -38.75165,0.0532 c 0.79518,0.0905 1.59023,0.17383 2.38538,0.25374 -0.79505,-0.0799 -1.5903,-0.16352 -2.38538,-0.25374 z m 37.54345,0.12303 c -0.40071,0.0556 -0.80502,0.10901 -1.21335,0.16034 0.4083,-0.0513 0.81269,-0.10478 1.21335,-0.16034 z m -34.50746,0.19526 c 0.82619,0.0802 1.65222,0.15664 2.47841,0.22543 -0.82622,-0.0688 -1.65222,-0.14526 -2.47841,-0.22543 z"
       id="path2172" />
    <path
       inkscape:export-ydpi="17.095411"
       inkscape:export-xdpi="17.095411"
       style="font-style:normal;font-variant:normal;font-weight:bold;font-stretch:normal;font-size:medium;line-height:1.25;font-family:Ubuntu;-inkscape-font-specification:Ubuntu;letter-spacing:0px;word-spacing:0px;fill:#808080;fill-opacity:1;stroke:none;stroke-width:2.72222"
       d="m 76.620784,112.6194 c -4.72773,1.90607 -10.45228,3.23586 -17.17209,3.99099 v 19.48709 c -1.07564,0.13758 -2.30466,0.27411 -3.68763,0.41142 -1.38298,0.0685 -2.68925,0.10293 -3.91861,0.10293 -3.99524,0 -6.72262,-1.09749 -8.18246,-3.29248 -0.0796,-0.11959 -0.15615,-0.24527 -0.23151,-0.37306 -0.0222,-0.0376 -0.0439,-0.0751 -0.0656,-0.11351 -0.0339,-0.0595 -0.0662,-0.12276 -0.0992,-0.18415 -0.0786,-0.14658 -0.15449,-0.29739 -0.22791,-0.45376 -0.022,-0.046 -0.0442,-0.0921 -0.0656,-0.13943 -0.18722,-0.4146 -0.35753,-0.86201 -0.50953,-1.3425 -0.0116,-0.0365 -0.0222,-0.0738 -0.0336,-0.11059 -0.0684,-0.22252 -0.13378,-0.45112 -0.19482,-0.68739 -0.006,-0.0265 -0.0132,-0.0511 -0.0196,-0.077 -0.13837,-0.54662 -0.25807,-1.12871 -0.35761,-1.7481 -0.0506,-0.31538 -0.0963,-0.63976 -0.13692,-0.97366 -0.16367,-1.34594 -0.24754,-2.84163 -0.24754,-4.49475 v -5.30463 c -1.2201,-0.0265 -2.4932,-0.0664 -3.81992,-0.11932 -2.53524,-0.10584 -5.12355,-0.26406 -7.76439,-0.47546 -1.86264,-0.15505 -3.72512,-0.3392 -5.58776,-0.55139 v 8.3013 c 0,0.48022 0.007,0.95541 0.0217,1.42531 0.0124,0.41116 0.031,0.81756 0.0543,1.22105 0.008,0.14685 0.0206,0.29078 0.0305,0.43657 0.0185,0.27305 0.0379,0.54504 0.0615,0.81412 0.0145,0.16642 0.032,0.33099 0.0486,0.49583 0.0238,0.23601 0.0484,0.47175 0.076,0.70458 0.0212,0.17807 0.0438,0.35428 0.0672,0.53049 0.0303,0.22807 0.0625,0.45509 0.0966,0.68025 0.0249,0.1643 0.0501,0.32781 0.077,0.49027 0.0395,0.23918 0.0822,0.47572 0.1261,0.7112 0.0276,0.14896 0.0547,0.29818 0.0842,0.44582 0.0519,0.25982 0.10806,0.51594 0.16537,0.77153 0.0262,0.11641 0.0508,0.23415 0.078,0.35004 0.0881,0.37359 0.18073,0.74322 0.28061,1.10781 0.84514,3.08637 2.26672,5.76157 4.26435,8.02481 1.99765,2.19472 4.68661,3.90922 8.0672,5.14403 3.45741,1.23428 7.76001,1.85209 12.90775,1.85209 5.07084,0 9.91113,-0.34317 14.52107,-1.02897 1.72871,-0.23151 3.61172,-0.5379 5.32524,-0.83767 2.85586,-0.4998 5.24537,-0.9615 5.65394,-1.06548 12.80985,-3.26681 12.56038,-20.89996 12.67155,-26.11331 -3.59354,1.63036 -7.71667,2.95433 -12.35633,3.98012 z"
       id="path2174" />
    <path
       inkscape:export-ydpi="17.095411"
       inkscape:export-xdpi="17.095411"
       sodipodi:nodetypes="sccccccsccccccccccccsccccs"
       inkscape:connector-curvature="0"
       id="path2176"
       d="m 136.05008,6.1185283 c -11.86447,0 -20.60983,3.2128179 -26.23664,9.6381707 -2.6503,3.026551 -4.81678,6.63448 -6.39804,10.843825 -1.96808,5.030893 -2.74145,9.598096 -3.13933,14.319109 -0.0691,0.68721 -0.13055,1.382607 -0.18194,2.089573 l -1.407672,18.750846 c 1.578662,1.20904 3.031572,2.523914 4.349632,3.951674 4.62851,5.014243 6.94273,12.085603 6.94273,21.2138 0,10.473262 -4.85739,20.878234 -11.551242,27.992504 0.0365,-0.0169 0.0737,-0.0325 0.11006,-0.0488 -0.16146,7.56864 0.2012,33.1693 -18.396804,37.91233 -5.75174,1.60923 -8.31782,2.83351 -10.24537,4.90671 4.77021,-0.75748 18.53382,0.5986 27.554914,-10.71767 6.006512,-7.67785 13.518652,-22.98502 18.007192,-36.30282 4.58484,-13.603672 5.35523,-42.732394 5.35523,-42.732394 h 26.39318 l 1.6573,-20.27315 h -26.54415 l 0.29408,-4.320543 c 0.34733,-4.652997 1.60872,-8.530447 3.78423,-11.632352 2.27604,-3.101905 6.17878,-4.652434 11.70885,-4.652434 2.01089,0 4.21183,0.276296 6.6027,0.830298 2.4758,0.443089 4.6891,1.163602 6.6399,2.160693 l 4.79146,-19.442319 C 154.30568,9.7194022 151.6084,8.7776262 148.04881,7.7805352 144.57409,6.6728132 140.57464,6.1185283 136.05008,6.1185283 Z"
       style="font-style:normal;font-weight:normal;font-size:560.942px;line-height:1.25;font-family:sans-serif;letter-spacing:0px;word-spacing:0px;fill:#808080;fill-opacity:1;stroke:none;stroke-width:3.95777" />
  </g>
</svg>
